REM DIRINDEX 1\2,1\3,1\4
REM DIRNAME cjc105,folder01,folder02,folder03
TITLE ""
FILE "DISC1Track16.mp3" MP3
  TRACK 01 AUDIO
    TITLE "0:"
    INDEX 01 00:00:00
  TRACK 02 AUDIO
    TITLE "4:cjc105_1323"
    INDEX 01 00:00:13
  TRACK 03 AUDIO
    TITLE "0:"
    INDEX 01 00:07:41
  TRACK 04 AUDIO
    TITLE "4:cjc105_1324"
    INDEX 01 00:08:17
  TRACK 05 AUDIO
    TITLE "0:"
    INDEX 01 00:10:72
  TRACK 06 AUDIO
    TITLE "2:cjc105_1325"
    INDEX 01 00:11:42
  TRACK 07 AUDIO
    TITLE "3:cjc105_1326"
    INDEX 01 00:13:06
  TRACK 08 AUDIO
    TITLE "0:"
    INDEX 01 00:14:51
  TRACK 09 AUDIO
    TITLE "2:cjc105_1327"
    INDEX 01 00:14:70
  TRACK 10 AUDIO
    TITLE "3:cjc105_1328"
    INDEX 01 00:16:53
  TRACK 11 AUDIO
    TITLE "0:"
    INDEX 01 00:18:37
  TRACK 12 AUDIO
    TITLE "2:cjc105_1329"
    INDEX 01 00:18:52
  TRACK 13 AUDIO
    TITLE "3:cjc105_1330"
    INDEX 01 00:19:67
  TRACK 14 AUDIO
    TITLE "0:"
    INDEX 01 00:21:49
  TRACK 15 AUDIO
    TITLE "2:cjc105_1331"
    INDEX 01 00:21:62
  TRACK 16 AUDIO
    TITLE "3:cjc105_1332"
    INDEX 01 00:23:36
  TRACK 17 AUDIO
    TITLE "0:"
    INDEX 01 00:24:67
  TRACK 18 AUDIO
    TITLE "2:cjc105_1333"
    INDEX 01 00:25:15
  TRACK 19 AUDIO
    TITLE "3:cjc105_1334"
    INDEX 01 00:26:58
  TRACK 20 AUDIO
    TITLE "0:"
    INDEX 01 00:28:53
  TRACK 21 AUDIO
    TITLE "2:cjc105_1335"
    INDEX 01 00:28:70
  TRACK 22 AUDIO
    TITLE "3:cjc105_1336"
    INDEX 01 00:30:69
  TRACK 23 AUDIO
    TITLE "0:"
    INDEX 01 00:32:45
  TRACK 24 AUDIO
    TITLE "2:cjc105_1337"
    INDEX 01 00:32:58
  TRACK 25 AUDIO
    TITLE "3:cjc105_1338"
    INDEX 01 00:34:04
  TRACK 26 AUDIO
    TITLE "0:"
    INDEX 01 00:35:41
  TRACK 27 AUDIO
    TITLE "2:cjc105_1339"
    INDEX 01 00:35:51
  TRACK 28 AUDIO
    TITLE "3:cjc105_1340"
    INDEX 01 00:37:18
  TRACK 29 AUDIO
    TITLE "0:"
    INDEX 01 00:38:14
  TRACK 30 AUDIO
    TITLE "2:cjc105_1341"
    INDEX 01 00:38:28
  TRACK 31 AUDIO
    TITLE "3:cjc105_1342"
    INDEX 01 00:39:31
  TRACK 32 AUDIO
    TITLE "0:"
    INDEX 01 00:40:42
  TRACK 33 AUDIO
    TITLE "2:cjc105_1343"
    INDEX 01 00:40:56
  TRACK 34 AUDIO
    TITLE "3:cjc105_1344"
    INDEX 01 00:42:33
  TRACK 35 AUDIO
    TITLE "0:"
    INDEX 01 00:43:60
  TRACK 36 AUDIO
    TITLE "2:cjc105_1345"
    INDEX 01 00:43:72
  TRACK 37 AUDIO
    TITLE "3:cjc105_1346"
    INDEX 01 00:46:00
  TRACK 38 AUDIO
    TITLE "0:"
    INDEX 01 00:47:70
  TRACK 39 AUDIO
    TITLE "2:cjc105_1347"
    INDEX 01 00:48:08
  TRACK 40 AUDIO
    TITLE "3:cjc105_1348"
    INDEX 01 00:49:72
  TRACK 41 AUDIO
    TITLE "0:"
    INDEX 01 00:51:42
  TRACK 42 AUDIO
    TITLE "2:cjc105_1349"
    INDEX 01 00:51:56
  TRACK 43 AUDIO
    TITLE "3:cjc105_1350"
    INDEX 01 00:53:29
  TRACK 44 AUDIO
    TITLE "0:"
    INDEX 01 00:54:50
  TRACK 45 AUDIO
    TITLE "2:cjc105_1351"
    INDEX 01 00:54:66
  TRACK 46 AUDIO
    TITLE "3:cjc105_1352"
    INDEX 01 00:56:27
  TRACK 47 AUDIO
    TITLE "0:"
    INDEX 01 00:57:52
  TRACK 48 AUDIO
    TITLE "2:cjc105_1353"
    INDEX 01 00:57:62
  TRACK 49 AUDIO
    TITLE "3:cjc105_1354"
    INDEX 01 00:59:08
  TRACK 50 AUDIO
    TITLE "0:"
    INDEX 01 01:00:31
  TRACK 51 AUDIO
    TITLE "2:cjc105_1355"
    INDEX 01 01:00:45
  TRACK 52 AUDIO
    TITLE "3:cjc105_1356"
    INDEX 01 01:02:06
  TRACK 53 AUDIO
    TITLE "0:"
    INDEX 01 01:04:01
  TRACK 54 AUDIO
    TITLE "2:cjc105_1357"
    INDEX 01 01:04:15
  TRACK 55 AUDIO
    TITLE "3:cjc105_1358"
    INDEX 01 01:06:08
  TRACK 56 AUDIO
    TITLE "0:"
    INDEX 01 01:07:49
  TRACK 57 AUDIO
    TITLE "2:cjc105_1359"
    INDEX 01 01:07:64
  TRACK 58 AUDIO
    TITLE "3:cjc105_1360"
    INDEX 01 01:08:74
  TRACK 59 AUDIO
    TITLE "0:"
    INDEX 01 01:10:24
  TRACK 60 AUDIO
    TITLE "2:cjc105_1361"
    INDEX 01 01:10:47
  TRACK 61 AUDIO
    TITLE "3:cjc105_1362"
    INDEX 01 01:12:68
  TRACK 62 AUDIO
    TITLE "0:"
    INDEX 01 01:14:65
  TRACK 63 AUDIO
    TITLE "2:cjc105_1363"
    INDEX 01 01:14:74
  TRACK 64 AUDIO
    TITLE "3:cjc105_1364"
    INDEX 01 01:16:18
  TRACK 65 AUDIO
    TITLE "0:"
    INDEX 01 01:17:71
  TRACK 66 AUDIO
    TITLE "2:cjc105_1365"
    INDEX 01 01:18:09
  TRACK 67 AUDIO
    TITLE "3:cjc105_1366"
    INDEX 01 01:19:56
  TRACK 68 AUDIO
    TITLE "0:"
    INDEX 01 01:21:20
  TRACK 69 AUDIO
    TITLE "2:cjc105_1367"
    INDEX 01 01:21:35
  TRACK 70 AUDIO
    TITLE "3:cjc105_1368"
    INDEX 01 01:22:29
  TRACK 71 AUDIO
    TITLE "0:"
    INDEX 01 01:23:48
  TRACK 72 AUDIO
    TITLE "2:cjc105_1369"
    INDEX 01 01:23:62
  TRACK 73 AUDIO
    TITLE "3:cjc105_1370"
    INDEX 01 01:25:17
  TRACK 74 AUDIO
    TITLE "0:"
    INDEX 01 01:26:72
  TRACK 75 AUDIO
    TITLE "2:cjc105_1371"
    INDEX 01 01:27:10
  TRACK 76 AUDIO
    TITLE "3:cjc105_1372"
    INDEX 01 01:28:69
  TRACK 77 AUDIO
    TITLE "0:"
    INDEX 01 01:30:13
  TRACK 78 AUDIO
    TITLE "2:cjc105_1373"
    INDEX 01 01:30:30
  TRACK 79 AUDIO
    TITLE "3:cjc105_1374"
    INDEX 01 01:31:55
  TRACK 80 AUDIO
    TITLE "0:"
    INDEX 01 01:33:17
  TRACK 81 AUDIO
    TITLE "2:cjc105_1375"
    INDEX 01 01:33:34
  TRACK 82 AUDIO
    TITLE "3:cjc105_1376"
    INDEX 01 01:34:67
  TRACK 83 AUDIO
    TITLE "0:"
    INDEX 01 01:36:25
  TRACK 84 AUDIO
    TITLE "2:cjc105_1377"
    INDEX 01 01:36:39
  TRACK 85 AUDIO
    TITLE "3:cjc105_1378"
    INDEX 01 01:38:22
  TRACK 86 AUDIO
    TITLE "0:"
    INDEX 01 01:40:09
  TRACK 87 AUDIO
    TITLE "2:cjc105_1379"
    INDEX 01 01:40:23
  TRACK 88 AUDIO
    TITLE "3:cjc105_1380"
    INDEX 01 01:41:61
  TRACK 89 AUDIO
    TITLE "0:"
    INDEX 01 01:43:09
  TRACK 90 AUDIO
    TITLE "2:cjc105_1381"
    INDEX 01 01:43:25
  TRACK 91 AUDIO
    TITLE "3:cjc105_1382"
    INDEX 01 01:45:55
  TRACK 92 AUDIO
    TITLE "0:"
    INDEX 01 01:47:60
  TRACK 93 AUDIO
    TITLE "2:cjc105_1383"
    INDEX 01 01:47:72
  TRACK 94 AUDIO
    TITLE "3:cjc105_1384"
    INDEX 01 01:50:06
  TRACK 95 AUDIO
    TITLE "0:"
    INDEX 01 01:51:54
  TRACK 96 AUDIO
    TITLE "2:cjc105_1385"
    INDEX 01 01:51:68
  TRACK 97 AUDIO
    TITLE "3:cjc105_1386"
    INDEX 01 01:53:61
  TRACK 98 AUDIO
    TITLE "0:"
    INDEX 01 01:55:20
  TRACK 99 AUDIO
    TITLE "2:cjc105_1387"
    INDEX 01 01:55:32
  TRACK 100 AUDIO
    TITLE "3:cjc105_1388"
    INDEX 01 01:57:64
  TRACK 101 AUDIO
    TITLE "0:"
    INDEX 01 01:59:28
  TRACK 102 AUDIO
    TITLE "2:cjc105_1389"
    INDEX 01 01:59:40
  TRACK 103 AUDIO
    TITLE "3:cjc105_1390"
    INDEX 01 02:01:19
  TRACK 104 AUDIO
    TITLE "0:"
    INDEX 01 02:02:73
  TRACK 105 AUDIO
    TITLE "2:cjc105_1391"
    INDEX 01 02:03:10
  TRACK 106 AUDIO
    TITLE "3:cjc105_1392"
    INDEX 01 02:04:62
  TRACK 107 AUDIO
    TITLE "0:"
    INDEX 01 02:06:18
  TRACK 108 AUDIO
    TITLE "2:cjc105_1393"
    INDEX 01 02:06:30
  TRACK 109 AUDIO
    TITLE "3:cjc105_1394"
    INDEX 01 02:07:51
  TRACK 110 AUDIO
    TITLE "0:"
    INDEX 01 02:09:32
  TRACK 111 AUDIO
    TITLE "2:cjc105_1395"
    INDEX 01 02:09:44
  TRACK 112 AUDIO
    TITLE "3:cjc105_1396"
    INDEX 01 02:11:43
  TRACK 113 AUDIO
    TITLE "0:"
    INDEX 01 02:13:10
  TRACK 114 AUDIO
    TITLE "2:cjc105_1397"
    INDEX 01 02:13:22
  TRACK 115 AUDIO
    TITLE "3:cjc105_1398"
    INDEX 01 02:15:05
  TRACK 116 AUDIO
    TITLE "0:"
    INDEX 01 02:16:40
  TRACK 117 AUDIO
    TITLE "2:cjc105_1399"
    INDEX 01 02:16:54
  TRACK 118 AUDIO
    TITLE "3:cjc105_1400"
    INDEX 01 02:18:41
  TRACK 119 AUDIO
    TITLE "0:"
    INDEX 01 02:20:01
  TRACK 120 AUDIO
    TITLE "2:cjc105_1401"
    INDEX 01 02:20:20
  TRACK 121 AUDIO
    TITLE "3:cjc105_1402"
    INDEX 01 02:21:47
  TRACK 122 AUDIO
    TITLE "0:"
    INDEX 01 02:23:05
  TRACK 123 AUDIO
    TITLE "2:cjc105_1403"
    INDEX 01 02:23:25
  TRACK 124 AUDIO
    TITLE "3:cjc105_1404"
    INDEX 01 02:24:63
  TRACK 125 AUDIO
    TITLE "0:"
    INDEX 01 02:26:19
  TRACK 126 AUDIO
    TITLE "2:cjc105_1405"
    INDEX 01 02:26:33
  TRACK 127 AUDIO
    TITLE "3:cjc105_1406"
    INDEX 01 02:27:30
  TRACK 128 AUDIO
    TITLE "0:"
    INDEX 01 02:28:63
  TRACK 129 AUDIO
    TITLE "2:cjc105_1407"
    INDEX 01 02:29:02
  TRACK 130 AUDIO
    TITLE "3:cjc105_1408"
    INDEX 01 02:30:38
  TRACK 131 AUDIO
    TITLE "0:"
    INDEX 01 02:32:12
  TRACK 132 AUDIO
    TITLE "2:cjc105_1409"
    INDEX 01 02:32:29
  TRACK 133 AUDIO
    TITLE "3:cjc105_1410"
    INDEX 01 02:34:48
  TRACK 134 AUDIO
    TITLE "0:"
    INDEX 01 02:36:47
  TRACK 135 AUDIO
    TITLE "2:cjc105_1411"
    INDEX 01 02:36:60
  TRACK 136 AUDIO
    TITLE "3:cjc105_1412"
    INDEX 01 02:38:67
  TRACK 137 AUDIO
    TITLE "0:"
    INDEX 01 02:40:45
  TRACK 138 AUDIO
    TITLE "2:cjc105_1413"
    INDEX 01 02:40:58
  TRACK 139 AUDIO
    TITLE "3:cjc105_1414"
    INDEX 01 02:41:48
  TRACK 140 AUDIO
    TITLE "0:"
    INDEX 01 02:42:55
  TRACK 141 AUDIO
    TITLE "2:cjc105_1415"
    INDEX 01 02:42:73
  TRACK 142 AUDIO
    TITLE "3:cjc105_1416"
    INDEX 01 02:45:26
  TRACK 143 AUDIO
    TITLE "0:"
    INDEX 01 02:46:71
  TRACK 144 AUDIO
    TITLE "2:cjc105_1417"
    INDEX 01 02:47:13
  TRACK 145 AUDIO
    TITLE "3:cjc105_1418"
    INDEX 01 02:48:73
  TRACK 146 AUDIO
    TITLE "0:"
    INDEX 01 02:50:33
  TRACK 147 AUDIO
    TITLE "2:cjc105_1419"
    INDEX 01 02:50:43
  TRACK 148 AUDIO
    TITLE "3:cjc105_1420"
    INDEX 01 02:53:51
  TRACK 149 AUDIO
    TITLE "0:"
    INDEX 01 02:55:54
  TRACK 150 AUDIO
    TITLE "2:cjc105_1421"
    INDEX 01 02:55:68
  TRACK 151 AUDIO
    TITLE "3:cjc105_1422"
    INDEX 01 02:57:49
  TRACK 152 AUDIO
    TITLE "0:"
    INDEX 01 02:59:20
  TRACK 153 AUDIO
    TITLE "2:cjc105_1423"
    INDEX 01 02:59:34
  TRACK 154 AUDIO
    TITLE "3:cjc105_1424"
    INDEX 01 03:01:21
  TRACK 155 AUDIO
    TITLE "0:"
    INDEX 01 03:02:46
  TRACK 156 AUDIO
    TITLE "2:cjc105_1425"
    INDEX 01 03:02:60
  TRACK 157 AUDIO
    TITLE "3:cjc105_1426"
    INDEX 01 03:04:33
  TRACK 158 AUDIO
    TITLE "0:"
    INDEX 01 03:05:66
  TRACK 159 AUDIO
    TITLE "2:cjc105_1427"
    INDEX 01 03:06:05
  TRACK 160 AUDIO
    TITLE "3:cjc105_1428"
    INDEX 01 03:07:30
  TRACK 161 AUDIO
    TITLE "0:"
    INDEX 01 03:08:72
